# xmcd CD database file
#
# Track frame offsets:
#	150
#	12117
#	34542
#	53755
#	77525
#	89817
#	105137
#	123912
#	143330
#	160277
#	182297
#	204390
#	217432
#	223037
#	240895
#
# Disc length: 3486 seconds
#
# Revision: 0
# Processed by: cddbd v1.5.1PL2 Copyright (c) Steve Scherf et al.
# Submitted via: CDex 1.51
#
DISCID=b90d9c0f
DTITLE=Celso Blues Boy - Sem Limite (Coletanêa - CD2)
DYEAR=2001
DGENRE=Blues
TTITLE0=Fumando na escuridão
TTITLE1=Blues Motel
TTITLE2=Brilho da noite
TTITLE3=Forasteiro
TTITLE4=Atrás do tempo perdido
TTITLE5=Deixe tudo acontecer
TTITLE6=Lá vem ele outra vez
TTITLE7=Amor vazio
TTITLE8=A velha música
TTITLE9=Dry blues gin
TTITLE10=Não me espere
TTITLE11=Só resta um blues
TTITLE12=Até o próximo blues
TTITLE13=Sem ninguém
TTITLE14=Aquarela do Brazil (in blues)
EXTD=YEAR: 2001
EXTT0=
EXTT1=
EXTT2=
EXTT3=
EXTT4=
EXTT5=
EXTT6=
EXTT7=
EXTT8=
EXTT9=
EXTT10=
EXTT11=
EXTT12=
EXTT13=
EXTT14=
PLAYORDER=
